<svg width="20" height="20" viewBox="0 0 20 20" fill="none" xmlns="http://www.w3.org/2000/svg">
<g clip-path="url(#clip0_151_793)">
<path d="M10.2828 2.24668C12.8286 2.24668 13.1274 2.25803 14.1336 2.30342C15.0642 2.34503 15.5673 2.50013 15.904 2.63253C16.3503 2.80653 16.6681 3.0108 17.001 3.34369C17.3339 3.67657 17.5419 3.99433 17.7121 4.4407C17.8408 4.77737 17.9996 5.28048 18.0413 6.21104C18.0866 7.21726 18.098 7.5161 18.098 10.0619C18.098 12.6077 18.0866 12.9066 18.0413 13.9128C17.9996 14.8434 17.8445 15.3465 17.7121 15.6831C17.5381 16.1295 17.3339 16.4473 17.001 16.7801C16.6681 17.113 16.3503 17.3211 15.904 17.4913C15.5673 17.6199 15.0642 17.7788 14.1336 17.8204C13.1274 17.8658 12.8286 17.8772 10.2828 17.8772C7.73693 17.8772 7.43809 17.8658 6.43187 17.8204C5.50131 17.7788 4.9982 17.6237 4.66153 17.4913C4.21516 17.3173 3.8974 17.113 3.56452 16.7801C3.23163 16.4473 3.02358 16.1295 2.85335 15.6831C2.72474 15.3465 2.56586 14.8434 2.52425 13.9128C2.47886 12.9066 2.46751 12.6077 2.46751 10.0619C2.46751 7.5161 2.47886 7.21726 2.52425 6.21104C2.56586 5.28048 2.72096 4.77737 2.85335 4.4407C3.02736 3.99433 3.23163 3.67657 3.56452 3.34369C3.8974 3.0108 4.21516 2.80275 4.66153 2.63253C4.9982 2.50391 5.50131 2.34503 6.43187 2.30342C7.43809 2.25425 7.74072 2.24668 10.2828 2.24668ZM10.2828 0.529297C7.69532 0.529297 7.37 0.540645 6.35243 0.586039C5.33865 0.631432 4.6464 0.794092 4.04115 1.02862C3.41321 1.27072 2.88362 1.59983 2.35403 2.12942C1.82444 2.65901 1.49912 3.19238 1.25323 3.81654C1.0187 4.42178 0.856042 5.11403 0.810648 6.1316C0.765255 7.14539 0.753906 7.47071 0.753906 10.0581C0.753906 12.6456 0.765255 12.9709 0.810648 13.9884C0.856042 15.0022 1.0187 15.6945 1.25323 16.3035C1.49533 16.9315 1.82444 17.461 2.35403 17.9906C2.88362 18.5202 3.41699 18.8455 4.04115 19.0914C4.6464 19.326 5.33865 19.4886 6.35622 19.534C7.37379 19.5794 7.69532 19.5908 10.2865 19.5908C12.8777 19.5908 13.1993 19.5794 14.2169 19.534C15.2306 19.4886 15.9229 19.326 16.5319 19.0914C17.1599 18.8493 17.6895 18.5202 18.219 17.9906C18.7486 17.461 19.074 16.9277 19.3198 16.3035C19.5544 15.6983 19.717 15.006 19.7624 13.9884C19.8078 12.9709 19.8192 12.6493 19.8192 10.0581C19.8192 7.46693 19.8078 7.14539 19.7624 6.12782C19.717 5.11403 19.5544 4.42178 19.3198 3.81275C19.0777 3.18481 18.7486 2.65522 18.219 2.12563C17.6895 1.59604 17.1561 1.27072 16.5319 1.02484C15.9267 0.790309 15.2344 0.627649 14.2169 0.582256C13.1955 0.540645 12.8702 0.529297 10.2828 0.529297Z" fill="#1C306B"/>
<path d="M10.2828 2.24668C12.8286 2.24668 13.1274 2.25803 14.1336 2.30342C15.0642 2.34503 15.5673 2.50013 15.904 2.63253C16.3503 2.80653 16.6681 3.0108 17.001 3.34369C17.3339 3.67657 17.5419 3.99433 17.7121 4.4407C17.8408 4.77737 17.9996 5.28048 18.0413 6.21104C18.0866 7.21726 18.098 7.5161 18.098 10.0619C18.098 12.6077 18.0866 12.9066 18.0413 13.9128C17.9996 14.8434 17.8445 15.3465 17.7121 15.6831C17.5381 16.1295 17.3339 16.4473 17.001 16.7801C16.6681 17.113 16.3503 17.3211 15.904 17.4913C15.5673 17.6199 15.0642 17.7788 14.1336 17.8204C13.1274 17.8658 12.8286 17.8772 10.2828 17.8772C7.73693 17.8772 7.43809 17.8658 6.43187 17.8204C5.50131 17.7788 4.9982 17.6237 4.66153 17.4913C4.21516 17.3173 3.8974 17.113 3.56452 16.7801C3.23163 16.4473 3.02358 16.1295 2.85335 15.6831C2.72474 15.3465 2.56586 14.8434 2.52425 13.9128C2.47886 12.9066 2.46751 12.6077 2.46751 10.0619C2.46751 7.5161 2.47886 7.21726 2.52425 6.21104C2.56586 5.28048 2.72096 4.77737 2.85335 4.4407C3.02736 3.99433 3.23163 3.67657 3.56452 3.34369C3.8974 3.0108 4.21516 2.80275 4.66153 2.63253C4.9982 2.50391 5.50131 2.34503 6.43187 2.30342C7.43809 2.25425 7.74072 2.24668 10.2828 2.24668Z" fill="#1C306B"/>
<path d="M10.2836 5.16699C7.58269 5.16699 5.38867 7.35722 5.38867 10.0619C5.38867 12.7666 7.5789 14.9568 10.2836 14.9568C12.9883 14.9568 15.1785 12.7666 15.1785 10.0619C15.1785 7.35722 12.9883 5.16699 10.2836 5.16699ZM10.2836 13.2357C8.52838 13.2357 7.10606 11.8133 7.10606 10.0581C7.10606 8.30292 8.52838 6.88059 10.2836 6.88059C12.0388 6.88059 13.4611 8.30292 13.4611 10.0581C13.4611 11.8133 12.0388 13.2357 10.2836 13.2357Z" fill="white"/>
<path d="M15.3709 6.11293C16.0018 6.11293 16.5133 5.60146 16.5133 4.97053C16.5133 4.3396 16.0018 3.82812 15.3709 3.82812C14.74 3.82812 14.2285 4.3396 14.2285 4.97053C14.2285 5.60146 14.74 6.11293 15.3709 6.11293Z" fill="white"/>
</g>
<defs>
<clipPath id="clip0_151_793">
<rect width="19.0577" height="19.0577" fill="white" transform="translate(0.753906 0.529297)"/>
</clipPath>
</defs>
</svg>
