<svg width="20" height="20" viewBox="0 0 20 20" fill="none" xmlns="http://www.w3.org/2000/svg">
<g clip-path="url(#clip0_151_795)">
<path d="M18.52 0.529297H2.27597C1.90285 0.529297 1.54502 0.677516 1.28119 0.941347C1.01736 1.20518 0.869141 1.56301 0.869141 1.93612V18.1801C0.869141 18.5533 1.01736 18.9111 1.28119 19.1749C1.54502 19.4388 1.90285 19.587 2.27597 19.587H18.52C18.8931 19.587 19.2509 19.4388 19.5148 19.1749C19.7786 18.9111 19.9268 18.5533 19.9268 18.1801V1.93612C19.9268 1.56301 19.7786 1.20518 19.5148 0.941347C19.2509 0.677516 18.8931 0.529297 18.52 0.529297ZM6.54939 16.7641H3.68412V7.66269H6.54939V16.7641ZM5.11477 6.40144C4.78975 6.39961 4.47256 6.30155 4.20323 6.11962C3.93389 5.93769 3.72449 5.68005 3.60144 5.37923C3.47839 5.0784 3.44721 4.74787 3.51183 4.42933C3.57645 4.1108 3.73399 3.81855 3.96455 3.58947C4.19511 3.36038 4.48836 3.20473 4.8073 3.14215C5.12624 3.07957 5.45657 3.11288 5.7566 3.23786C6.05663 3.36284 6.31292 3.57389 6.49311 3.84439C6.67331 4.11489 6.76934 4.4327 6.76908 4.75772C6.77215 4.97532 6.73137 5.19131 6.64918 5.39282C6.567 5.59433 6.44508 5.77722 6.29071 5.93061C6.13633 6.084 5.95266 6.20474 5.75062 6.28563C5.54859 6.36652 5.33234 6.40591 5.11477 6.40144ZM17.1105 16.772H14.2466V11.7998C14.2466 10.3334 13.6232 9.88079 12.8186 9.88079C11.9689 9.88079 11.1351 10.5213 11.1351 11.8369V16.772H8.26987V7.66931H11.0253V8.93056H11.0624C11.339 8.37074 12.3077 7.41388 13.786 7.41388C15.3847 7.41388 17.1118 8.3628 17.1118 11.142L17.1105 16.772Z" fill="#1C306B"/>
</g>
<defs>
<clipPath id="clip0_151_795">
<rect width="19.0577" height="19.0577" fill="white" transform="translate(0.869141 0.529297)"/>
</clipPath>
</defs>
</svg>
