<svg width="21" height="20" viewBox="0 0 21 20" fill="none" xmlns="http://www.w3.org/2000/svg">
<path d="M18.8437 14.3475C15.8364 12.915 15.3571 10.7032 15.3357 10.5391C15.3099 10.3404 15.2806 10.1841 15.5034 9.98201C15.7183 9.78671 16.6714 9.20617 16.9359 9.02454C17.373 8.72377 17.5656 8.42349 17.4237 8.05437C17.3244 7.79901 17.0828 7.70282 16.8282 7.70282C16.7479 7.70307 16.6679 7.71191 16.5896 7.72919C16.1093 7.83172 15.6429 8.06853 15.3729 8.13249C15.3405 8.14072 15.3072 8.14515 15.2737 8.14567C15.1298 8.14567 15.0752 8.08269 15.0891 7.91229C15.1229 7.39571 15.1943 6.38746 15.1115 5.44561C14.9978 4.14977 14.5731 3.50771 14.0695 2.93987C13.8259 2.66449 12.6946 1.48145 10.5114 1.48145C8.32818 1.48145 7.19838 2.66449 6.95624 2.93645C6.45113 3.5043 6.0269 4.14636 5.91427 5.44219C5.8314 6.38404 5.90583 7.3918 5.93659 7.90887C5.94652 8.07097 5.89591 8.14226 5.75201 8.14226C5.71853 8.14169 5.68522 8.13727 5.65278 8.12907C5.38335 8.06511 4.91694 7.82831 4.43664 7.72577C4.3583 7.70849 4.27827 7.69965 4.19798 7.69941C3.94245 7.69941 3.7018 7.79706 3.60256 8.05095C3.46066 8.42007 3.65218 8.72035 4.0908 9.02112C4.35527 9.20275 5.30843 9.7828 5.52328 9.97859C5.74556 10.1807 5.71679 10.337 5.69098 10.5357C5.66965 10.7022 5.18984 12.914 2.18299 14.3441C2.00685 14.4281 1.70716 14.6058 2.23559 14.8929C3.0652 15.3441 3.61745 15.2957 4.04664 15.5677C4.41084 15.7986 4.1955 16.2966 4.46046 16.4763C4.78595 16.6975 5.74805 16.4607 6.99098 16.8645C8.03295 17.2024 8.66608 18.1569 10.5139 18.1569C12.3616 18.1569 13.0131 17.198 14.0367 16.8645C15.2772 16.4607 16.2413 16.6975 16.5672 16.4763C16.8317 16.2966 16.6169 15.7986 16.9811 15.5677C17.4103 15.2957 17.962 15.3441 18.7921 14.8929C19.3196 14.6092 19.0199 14.4315 18.8437 14.3475Z" fill="#1C306B"/>
</svg>
