<svg width="20" height="14" viewBox="0 0 20 14" fill="none" xmlns="http://www.w3.org/2000/svg">
<path d="M18.7647 2.47555C18.545 1.65925 17.9013 1.01562 17.085 0.795848C15.5937 0.387695 9.62841 0.387695 9.62841 0.387695C9.62841 0.387695 3.6631 0.387695 2.17177 0.78015C1.37116 0.999924 0.711838 1.65925 0.492064 2.47555C0.0996094 3.96688 0.0996094 7.05942 0.0996094 7.05942C0.0996094 7.05942 0.0996094 10.1677 0.492064 11.6433C0.711838 12.4596 1.35546 13.1032 2.17177 13.323C3.67879 13.7311 9.62841 13.7311 9.62841 13.7311C9.62841 13.7311 15.5937 13.7311 17.085 13.3387C17.9013 13.1189 18.545 12.4753 18.7647 11.659C19.1572 10.1677 19.1572 7.07512 19.1572 7.07512C19.1572 7.07512 19.1729 3.96688 18.7647 2.47555Z" fill="#1C306B"/>
<path d="M7.72852 9.91629L12.6891 7.05922L7.72852 4.20215V9.91629Z" fill="white"/>
</svg>
