<svg width="20" height="20" viewBox="0 0 20 20" fill="none" xmlns="http://www.w3.org/2000/svg">
<g clip-path="url(#clip0_91_1382)">
<path d="M18.7647 5.47653C18.545 4.66022 17.9013 4.0166 17.085 3.79682C15.5937 3.38867 9.62841 3.38867 9.62841 3.38867C9.62841 3.38867 3.6631 3.38867 2.17177 3.78113C1.37116 4.0009 0.711838 4.66022 0.492064 5.47653C0.0996094 6.96786 0.0996094 10.0604 0.0996094 10.0604C0.0996094 10.0604 0.0996094 13.1686 0.492064 14.6443C0.711838 15.4606 1.35546 16.1042 2.17177 16.324C3.67879 16.7321 9.62841 16.7321 9.62841 16.7321C9.62841 16.7321 15.5937 16.7321 17.085 16.3397C17.9013 16.1199 18.545 15.4763 18.7647 14.66C19.1572 13.1686 19.1572 10.0761 19.1572 10.0761C19.1572 10.0761 19.1729 6.96786 18.7647 5.47653Z" fill="#1C306B"/>
<path d="M7.72852 12.9173L12.6891 10.0602L7.72852 7.20312V12.9173Z" fill="white"/>
</g>
<defs>
<clipPath id="clip0_91_1382">
<rect width="19.0577" height="19.0577" fill="white" transform="translate(0.0996094 0.529297)"/>
</clipPath>
</defs>
</svg>
