<svg width="35" height="35" viewBox="0 0 35 35" fill="none" xmlns="http://www.w3.org/2000/svg">
<path fill-rule="evenodd" clip-rule="evenodd" d="M32.4821 17.9648L22.3496 28.0984C21.9176 28.5304 21.2209 28.5304 20.7899 28.0984L20.0101 27.3185C19.5781 26.8887 19.5781 26.1909 20.0101 25.7588L30.1437 15.6263C30.5757 15.1965 31.2713 15.1965 31.7034 15.6263L32.4821 16.4051C32.912 16.836 32.912 17.5349 32.4821 17.9648ZM17.9757 23.7223C17.5437 24.1543 16.8481 24.1543 16.416 23.7223L15.6362 22.9435C15.2042 22.5126 15.2042 21.8148 15.6362 21.3827L25.7698 11.2502C26.1996 10.8204 26.8974 10.8204 27.3295 11.2502L28.1082 12.029C28.5381 12.461 28.5381 13.1588 28.1082 13.5887L17.9757 23.7223ZM13.5996 19.3473C13.1676 19.7793 12.472 19.7793 12.0399 19.3473L11.2612 18.5685C10.8292 18.1365 10.8292 17.4398 11.2612 17.0088L21.3948 6.87634C21.8246 6.44649 22.5224 6.44649 22.9545 6.87634L23.7332 7.65509C24.1631 8.08712 24.1631 8.78603 23.7332 9.21478L13.5996 19.3473ZM6.41588 17.5043L14.9909 25.8562C15.4207 26.2751 15.4207 26.9554 14.9909 27.3743L14.2099 28.1323C13.7801 28.5512 13.0823 28.5512 12.6513 28.1323L2.51885 18.2645C2.08682 17.8456 2.08682 17.1652 2.51885 16.7463L12.6513 6.87634C13.0823 6.45743 13.7801 6.45743 14.2099 6.87634L14.9909 7.63431C15.4207 8.05321 15.4207 8.73353 14.9909 9.15243L6.41588 17.5043Z" fill="#1C306B"/>
</svg>
