<svg width="13" height="19" viewBox="0 0 13 19" fill="none" xmlns="http://www.w3.org/2000/svg">
<path d="M6.35061 9.06909C5.77868 9.06909 5.23017 8.84189 4.82576 8.43747C4.42134 8.03306 4.19414 7.48455 4.19414 6.91262C4.19414 6.34069 4.42134 5.79218 4.82576 5.38777C5.23017 4.98335 5.77868 4.75615 6.35061 4.75615C6.92254 4.75615 7.47104 4.98335 7.87546 5.38777C8.27988 5.79218 8.50708 6.34069 8.50708 6.91262C8.50708 7.19581 8.4513 7.47623 8.34292 7.73786C8.23455 7.9995 8.07571 8.23723 7.87546 8.43747C7.67521 8.63772 7.43749 8.79656 7.17585 8.90494C6.91422 9.01331 6.6338 9.06909 6.35061 9.06909ZM6.35061 0.874512C4.7492 0.874512 3.21339 1.51067 2.08102 2.64303C0.948656 3.7754 0.3125 5.31121 0.3125 6.91262C0.3125 11.4412 6.35061 18.1262 6.35061 18.1262C6.35061 18.1262 12.3887 11.4412 12.3887 6.91262C12.3887 5.31121 11.7526 3.7754 10.6202 2.64303C9.48783 1.51067 7.95201 0.874512 6.35061 0.874512Z" fill="#1C306B"/>
</svg>
