<svg width="92" height="92" viewBox="0 0 92 92" fill="none" xmlns="http://www.w3.org/2000/svg">
<g clip-path="url(#clip0_156_954)">
<path d="M79.4379 64.9306C79.7917 64.4588 80.2635 64.3409 80.8532 64.5768C81.443 64.8127 81.7379 65.2255 81.7379 65.8152V80.3229C81.7379 81.2665 81.2661 81.7383 80.3225 81.7383H65.8148C65.225 81.7383 64.8122 81.4729 64.5763 80.9422C64.3404 80.4114 64.4584 79.9101 64.9301 79.4383L79.4379 64.9306ZM68.9994 79.0845H79.084V68.9999L68.9994 79.0845ZM88.9917 43.5229C89.4635 43.1691 89.9648 43.1101 90.4955 43.346C91.0263 43.5819 91.2917 43.9947 91.2917 44.5845V89.8768C91.2917 90.7024 90.8199 91.1152 89.8763 91.1152H44.7609C44.1712 91.1152 43.7583 90.8498 43.5224 90.3191C43.2865 89.7883 43.3455 89.287 43.6994 88.8152L51.484 81.2075H10.7917C8.07883 81.2075 5.71985 80.264 3.71473 78.3768C1.94549 76.6075 0.942929 74.4845 0.707031 72.0076C0.707031 71.8896 0.707031 71.7717 0.707031 71.6537V15.2153C0.707031 12.2666 1.73908 9.78963 3.80319 7.78451C5.86729 5.77938 8.31473 4.77682 11.1455 4.77682C12.0891 4.77682 12.5609 5.18964 12.5609 6.01527V19.1076H53.784L62.984 9.90758L67.4071 5.66143L70.9455 2.12297C71.7712 1.29733 72.7443 0.884506 73.8648 0.884506C74.9853 0.884506 75.8994 1.29733 76.6071 2.12297L80.8532 6.1922C81.5609 7.01784 81.9148 7.99091 81.9148 9.11143C81.9148 10.2319 81.5609 11.146 80.8532 11.8537L77.1378 15.3922L73.4225 19.1076H83.684C84.6276 19.1076 85.0994 19.5794 85.0994 20.523V47.5922L88.9917 43.5229ZM72.7148 3.8922L70.2378 6.54604L76.2532 12.7383L78.9071 10.0845C79.6148 9.37682 79.6148 8.7281 78.9071 8.13835L74.8378 3.8922C74.1301 3.30246 73.4225 3.30246 72.7148 3.8922ZM68.2917 8.4922L65.8148 10.7922L72.0071 16.9845L74.3071 14.5076L68.2917 8.4922ZM88.6379 59.446V47.7691L65.284 71.1229C65.166 71.1229 65.1071 71.1819 65.1071 71.2999C64.8712 71.4178 64.6058 71.4768 64.3109 71.4768C64.016 71.4768 63.7507 71.4178 63.5148 71.2999C63.3968 71.1819 63.3378 71.1229 63.3378 71.1229C62.7481 70.5332 62.7481 69.9434 63.3378 69.3537L82.4455 50.246V21.7614H70.7686L43.5224 49.1845C43.4045 49.1845 43.3455 49.214 43.3455 49.2729C43.3455 49.3319 43.316 49.3614 43.2571 49.3614C43.1981 49.3614 43.1686 49.4204 43.1686 49.5383C43.0506 49.5383 42.9917 49.5383 42.9917 49.5383L34.8532 52.3691H61.2148C62.1584 52.3691 62.6301 52.8114 62.6301 53.696C62.6301 54.5806 62.1584 55.0229 61.2148 55.0229H24.4147C23.5891 55.0229 23.1763 54.5806 23.1763 53.696C23.1763 52.8114 23.5891 52.3691 24.4147 52.3691H28.8378C28.8378 52.2512 28.8968 52.1922 29.0147 52.1922L30.784 47.2383L33.2609 39.8076L33.4378 39.6306V39.4537C33.5558 39.4537 33.6147 39.3947 33.6147 39.2768L39.8071 33.0845C40.3968 32.4948 41.016 32.4948 41.6647 33.0845C42.3135 33.6742 42.343 34.323 41.7532 35.0306L36.4455 40.3383L42.4609 46.3537L69.3532 19.6383L70.0609 18.9307L64.0455 12.7383L55.1994 21.4076L45.6455 31.1383C45.0558 31.7281 44.4365 31.6986 43.7878 31.0499C43.1391 30.4012 43.1096 29.7819 43.6994 29.1922L51.1301 21.7614H12.5609V47.5922C12.5609 48.4178 12.1186 48.8306 11.234 48.8306C10.3493 48.8306 9.90704 48.4178 9.90704 47.5922V20.523V7.43066C8.01986 7.78451 6.45703 8.69861 5.21857 10.173C3.98011 11.6473 3.36088 13.3281 3.36088 15.2153V64.7537C3.59678 64.5178 3.7737 64.3409 3.89165 64.2229C5.54293 62.5717 7.54806 61.5691 9.90704 61.2152V52.8999C9.90704 51.9563 10.3493 51.4845 11.234 51.4845C12.1186 51.4845 12.5609 51.9563 12.5609 52.8999V62.4537C12.5609 63.3973 12.0891 63.8691 11.1455 63.8691C11.0276 63.8691 10.9096 63.8691 10.7917 63.8691H10.6147C10.4968 63.8691 10.4378 63.8691 10.4378 63.8691H10.2609C10.1429 63.8691 10.025 63.8691 9.90704 63.8691C9.78909 63.987 9.67114 64.046 9.55319 64.046C7.07627 64.5178 5.24806 65.9332 4.06857 68.2922C4.06857 68.4101 4.06857 68.5281 4.06857 68.646H3.89165C3.89165 68.764 3.89165 68.8819 3.89165 68.9999C3.7737 69.1178 3.71473 69.2063 3.71473 69.2652C3.71473 69.3242 3.71473 69.4127 3.71473 69.5306C3.59678 69.6486 3.5378 69.7665 3.5378 69.8845C3.5378 70.0024 3.5378 70.1204 3.5378 70.2383C3.5378 70.3563 3.47883 70.4742 3.36088 70.5922C3.36088 70.8281 3.36088 71.1229 3.36088 71.4768C3.47883 73.4819 4.24549 75.1627 5.66088 76.5191C7.07627 77.8755 8.78652 78.5537 10.7917 78.5537H54.1378L59.4455 73.246C59.9173 72.6563 60.5071 72.5973 61.2148 73.0691C61.2148 73.0691 61.2737 73.1281 61.3917 73.246C61.9814 73.8358 61.9814 74.4255 61.3917 75.0152L47.9455 88.4614H88.6379V82.0922H86.1609C85.3353 82.0922 84.9225 81.6499 84.9225 80.7652C84.9225 79.8806 85.3353 79.4383 86.1609 79.4383H88.6379V75.546H86.1609C85.3353 75.546 84.9225 75.1037 84.9225 74.2191C84.9225 73.3345 85.3353 72.8922 86.1609 72.8922H88.6379V68.8229H86.1609C85.3353 68.8229 84.9225 68.3806 84.9225 67.496C84.9225 66.6114 85.3353 66.1691 86.1609 66.1691H88.6379V62.0999H86.1609C85.3353 62.0999 84.9225 61.6576 84.9225 60.7729C84.9225 59.8883 85.3353 59.446 86.1609 59.446H88.6379ZM40.1609 47.7691L35.0301 42.6383L33.7917 46.5306L36.2686 49.0076L40.1609 47.7691Z" fill="#444444"/>
</g>
<defs>
<clipPath id="clip0_156_954">
<rect width="92" height="92" fill="white" transform="matrix(1 0 0 -1 0 92)"/>
</clipPath>
</defs>
</svg>
