<svg width="92" height="92" viewBox="0 0 92 92" fill="none" xmlns="http://www.w3.org/2000/svg">
<path d="M45.6455 21.5852C51.6609 21.4673 56.7917 23.5019 61.0378 27.6891C65.284 31.8763 67.4071 36.9776 67.4071 42.9929C67.4071 49.5981 64.8712 55.0827 59.7994 59.4468C57.7942 61.0981 56.7917 63.2212 56.7917 65.816V75.3699C56.7917 76.6673 56.3494 77.7583 55.4648 78.643C54.5801 79.5276 53.4891 79.9699 52.1917 79.9699H39.8071C38.5096 79.9699 37.4186 79.5276 36.534 78.643C35.6494 77.7583 35.2071 76.6673 35.2071 75.3699V65.816C35.2071 63.2212 34.2045 61.0981 32.1994 59.4468C26.8917 54.9647 24.3558 49.2442 24.5917 42.2852C24.8276 36.6237 26.9801 31.7878 31.0494 27.7775C35.1186 23.7673 39.984 21.7032 45.6455 21.5852ZM53.2532 75.3699V67.5853H38.7455V75.3699C38.7455 76.0776 39.0994 76.4314 39.8071 76.4314H52.1917C52.8994 76.4314 53.2532 76.0776 53.2532 75.3699ZM57.4994 56.616C61.7455 53.0776 63.8686 48.5365 63.8686 42.9929C63.8686 38.0391 62.0994 33.7929 58.5609 30.2545C55.0224 26.716 50.7763 25.0057 45.8224 25.1237C40.9865 25.2416 36.8583 26.9519 33.4378 30.2545C30.0173 33.557 28.2481 37.6263 28.1301 42.4622C28.0122 48.2417 30.1353 52.9596 34.4994 56.616C36.8583 58.6212 38.2147 61.0981 38.5686 64.0468H44.2301V49.8929C44.2301 48.7135 44.8199 48.1237 45.9994 48.1237C47.1789 48.1237 47.7686 48.7135 47.7686 49.8929V64.0468H53.4301C53.9019 61.0981 55.2583 58.6212 57.4994 56.616ZM38.3032 41.0468C38.3032 41.0468 38.4359 41.0468 38.7013 41.0468C38.9667 41.0468 39.2763 41.2237 39.6301 41.5776C39.984 41.9314 40.1609 42.3442 40.1609 42.816C40.1609 43.2878 39.984 43.7006 39.6301 44.0545C39.2763 44.4083 38.8635 44.5852 38.3917 44.5852C37.9199 44.5852 37.5071 44.4083 37.1532 44.0545C36.7994 43.7006 36.6224 43.2878 36.6224 42.816C36.6224 42.3442 36.7699 41.9314 37.0647 41.5776C37.3596 41.2237 37.7724 41.0468 38.3032 41.0468ZM45.9994 41.0468C45.9994 41.0468 46.1173 41.0468 46.3532 41.0468C46.5891 41.0468 46.884 41.2237 47.2378 41.5776C47.5917 41.9314 47.7686 42.3442 47.7686 42.816C47.7686 43.2878 47.5917 43.7006 47.2378 44.0545C46.884 44.4083 46.4712 44.5852 45.9994 44.5852C45.5276 44.5852 45.1147 44.4083 44.7609 44.0545C44.4071 43.7006 44.2301 43.2878 44.2301 42.816C44.2301 42.3442 44.4071 41.9314 44.7609 41.5776C45.1147 41.2237 45.5276 41.0468 45.9994 41.0468ZM53.6071 41.0468C53.6071 41.0468 53.725 41.0468 53.9609 41.0468C54.1968 41.0468 54.4917 41.2237 54.8455 41.5776C55.1994 41.9314 55.3763 42.3442 55.3763 42.816C55.3763 43.2878 55.1994 43.7006 54.8455 44.0545C54.4917 44.4083 54.0789 44.5852 53.6071 44.5852C53.1353 44.5852 52.7224 44.4083 52.3686 44.0545C52.0148 43.7006 51.8378 43.2878 51.8378 42.816C51.8378 42.3442 52.0148 41.9314 52.3686 41.5776C52.7224 41.2237 53.1353 41.0468 53.6071 41.0468ZM89.5225 0.708298C90.702 0.708298 91.2917 1.29804 91.2917 2.47753V25.1237C91.2917 26.3032 90.702 26.8929 89.5225 26.8929H83.1532V34.6776C83.1532 35.857 82.5635 36.4468 81.384 36.4468H72.8917C71.7122 36.4468 71.1225 35.857 71.1225 34.6776C71.1225 33.4981 71.7122 32.9083 72.8917 32.9083H79.6148V26.8929H66.1686C64.9891 26.8929 64.3994 26.3032 64.3994 25.1237V2.47753C64.3994 1.29804 64.9891 0.708298 66.1686 0.708298H89.5225ZM87.7532 23.3545V4.24677H67.9378V23.3545H87.7532ZM82.7994 15.7468C83.9789 15.7468 84.5686 16.3365 84.5686 17.516C84.5686 18.6955 83.9789 19.2852 82.7994 19.2852H72.8917C71.7122 19.2852 71.1225 18.6955 71.1225 17.516C71.1225 16.3365 71.7122 15.7468 72.8917 15.7468H82.7994ZM82.7994 8.66984C83.9789 8.66984 84.5686 9.25958 84.5686 10.4391C84.5686 11.6186 83.9789 12.2083 82.7994 12.2083H72.8917C71.7122 12.2083 71.1225 11.6186 71.1225 10.4391C71.1225 9.25958 71.7122 8.66984 72.8917 8.66984H82.7994ZM25.8301 0.708298C27.0096 0.708298 27.5994 1.29804 27.5994 2.47753V25.1237C27.5994 26.3032 27.0096 26.8929 25.8301 26.8929H12.384V32.9083H19.107C20.2865 32.9083 20.8763 33.4981 20.8763 34.6776C20.8763 35.857 20.2865 36.4468 19.107 36.4468H10.6147C9.43524 36.4468 8.8455 35.857 8.8455 34.6776V26.8929H2.47626C1.29678 26.8929 0.707031 26.3032 0.707031 25.1237V2.47753C0.707031 1.29804 1.29678 0.708298 2.47626 0.708298H25.8301ZM24.0609 23.3545V4.24677H4.24549V23.3545H24.0609ZM19.107 15.7468C20.2865 15.7468 20.8763 16.3365 20.8763 17.516C20.8763 18.6955 20.2865 19.2852 19.107 19.2852H9.19934C8.01986 19.2852 7.43011 18.6955 7.43011 17.516C7.43011 16.3365 8.01986 15.7468 9.19934 15.7468H19.107ZM19.107 8.66984C20.2865 8.66984 20.8763 9.25958 20.8763 10.4391C20.8763 11.6186 20.2865 12.2083 19.107 12.2083H9.19934C8.01986 12.2083 7.43011 11.6186 7.43011 10.4391C7.43011 9.25958 8.01986 8.66984 9.19934 8.66984H19.107ZM25.8301 65.1083C27.0096 65.1083 27.5994 65.6981 27.5994 66.8776V89.5237C27.5994 90.7032 27.0096 91.293 25.8301 91.293H2.47626C1.29678 91.293 0.707031 90.7032 0.707031 89.5237V66.8776C0.707031 65.6981 1.29678 65.1083 2.47626 65.1083H8.8455V57.3237C8.8455 56.1442 9.43524 55.5545 10.6147 55.5545H17.3378C18.5173 55.5545 19.107 56.1442 19.107 57.3237C19.107 58.5032 18.5173 59.0929 17.3378 59.0929H12.384V65.1083H25.8301ZM24.0609 87.7545V68.6468H4.24549V87.7545H24.0609ZM19.107 72.716C20.2865 72.716 20.8763 73.3058 20.8763 74.4853C20.8763 75.6648 20.2865 76.2545 19.107 76.2545H9.19934C8.01986 76.2545 7.43011 75.6648 7.43011 74.4853C7.43011 73.3058 8.01986 72.716 9.19934 72.716H19.107ZM19.107 79.793C20.2865 79.793 20.8763 80.3827 20.8763 81.5622C20.8763 82.7417 20.2865 83.3314 19.107 83.3314H9.19934C8.01986 83.3314 7.43011 82.7417 7.43011 81.5622C7.43011 80.3827 8.01986 79.793 9.19934 79.793H19.107ZM89.5225 65.1083C90.702 65.1083 91.2917 65.6981 91.2917 66.8776V89.5237C91.2917 90.7032 90.702 91.293 89.5225 91.293H66.1686C64.9891 91.293 64.3994 90.7032 64.3994 89.5237V66.8776C64.3994 65.6981 64.9891 65.1083 66.1686 65.1083H79.6148V59.0929H72.8917C71.7122 59.0929 71.1225 58.5032 71.1225 57.3237C71.1225 56.1442 71.7122 55.5545 72.8917 55.5545H81.384C82.5635 55.5545 83.1532 56.1442 83.1532 57.3237V65.1083H89.5225ZM87.7532 87.7545V68.6468H67.9378V87.7545H87.7532ZM82.7994 72.716C83.9789 72.716 84.5686 73.3058 84.5686 74.4853C84.5686 75.6648 83.9789 76.2545 82.7994 76.2545H72.8917C71.7122 76.2545 71.1225 75.6648 71.1225 74.4853C71.1225 73.3058 71.7122 72.716 72.8917 72.716H82.7994ZM82.7994 79.793C83.9789 79.793 84.5686 80.3827 84.5686 81.5622C84.5686 82.7417 83.9789 83.3314 82.7994 83.3314H72.8917C71.7122 83.3314 71.1225 82.7417 71.1225 81.5622C71.1225 80.3827 71.7122 79.793 72.8917 79.793H82.7994ZM23.3532 55.5545C23.3532 55.5545 23.4711 55.5545 23.707 55.5545C23.9429 55.5545 24.2378 55.7314 24.5917 56.0853C24.9455 56.4391 25.1224 56.8519 25.1224 57.3237C25.1224 57.7955 24.9455 58.2083 24.5917 58.5622C24.2378 58.916 23.825 59.0929 23.3532 59.0929C22.8814 59.0929 22.4686 58.916 22.1147 58.5622C21.7609 58.2083 21.584 57.7955 21.584 57.3237C21.584 56.8519 21.7609 56.4391 22.1147 56.0853C22.4686 55.7314 22.8814 55.5545 23.3532 55.5545Z" fill="#444444"/>
</svg>
