<svg width="92" height="92" viewBox="0 0 92 92" fill="none" xmlns="http://www.w3.org/2000/svg">
<path d="M29.5455 25.3007C29.5455 25.3007 30.5776 24.2686 32.6417 22.2045C34.7058 20.1404 38.6865 19.1084 44.584 19.1084C50.4814 19.1084 55.4942 21.1725 59.6225 25.3007C63.7507 29.4289 65.8148 34.4417 65.8148 40.3392C65.8148 42.5802 65.4609 44.7917 64.7532 46.9738C64.0455 49.1558 63.0725 51.2199 61.834 53.1661C60.5955 55.1122 59.0917 56.734 57.3224 58.0315C55.3173 59.6828 54.0199 61.8058 53.4301 64.4007H48.8301V56.9699C48.8301 56.2622 49.243 55.9084 50.0686 55.9084C51.8378 55.9084 53.4301 55.2892 54.8455 54.0507C56.2609 52.8122 57.0866 51.3084 57.3224 49.5392C57.4404 48.4776 57.2635 47.4161 56.7917 46.3545C59.0327 44.9392 60.1532 42.934 60.1532 40.3392C60.1532 37.7443 59.0327 35.7392 56.7917 34.3238C57.1455 33.4981 57.3224 32.6725 57.3224 31.8468C57.3224 29.8417 56.6442 28.1609 55.2878 26.8045C53.9314 25.4481 52.2507 24.7699 50.2455 24.7699C47.8865 24.7699 45.9994 25.7135 44.584 27.6007C43.1686 25.7135 41.2814 24.7699 38.9224 24.7699C36.9173 24.7699 35.2365 25.4481 33.8801 26.8045C32.5237 28.1609 31.8455 29.8417 31.8455 31.8468C31.8455 32.6725 32.0224 33.4981 32.3763 34.3238C30.1353 35.7392 29.0147 37.7443 29.0147 40.3392C29.0147 42.934 30.1353 44.9392 32.3763 46.3545C31.9045 47.534 31.7865 48.7725 32.0224 50.0699C32.2583 51.7212 33.0545 53.1071 34.4109 54.2276C35.7673 55.3481 37.3891 55.9084 39.2763 55.9084C39.984 55.9084 40.3378 56.2622 40.3378 56.9699V64.4007H35.7378C35.1481 61.8058 33.8506 59.6828 31.8455 58.0315C29.2506 56.0263 27.1865 53.4315 25.6532 50.2469C24.1199 47.0622 23.3532 43.7597 23.3532 40.3392C23.3532 34.4417 25.4173 29.4289 29.5455 25.3007ZM34.6763 49.5392C34.5583 48.3597 34.7942 47.3571 35.384 46.5315L36.4455 44.9392L34.6763 44.4084C32.7891 43.7007 31.8455 42.3443 31.8455 40.3392C31.8455 38.8058 32.4942 37.6263 33.7917 36.8007C35.2071 38.2161 36.9173 38.9238 38.9224 38.9238V36.093C37.743 36.093 36.7404 35.6802 35.9147 34.8545C35.0891 34.0289 34.6763 33.0263 34.6763 31.8468C34.6763 30.6674 35.0891 29.6648 35.9147 28.8391C36.7404 28.0135 37.743 27.6007 38.9224 27.6007C40.1019 27.6007 41.1045 28.0135 41.9301 28.8391C42.7558 29.6648 43.1686 30.6674 43.1686 31.8468H45.9994C45.9994 30.6674 46.4122 29.6648 47.2378 28.8391C48.0635 28.0135 49.066 27.6007 50.2455 27.6007C51.425 27.6007 52.4276 28.0135 53.2532 28.8391C54.0789 29.6648 54.4917 30.6674 54.4917 31.8468C54.4917 32.6725 54.2558 33.4391 53.784 34.1468L52.7224 35.7392L54.4917 36.2699C56.3789 36.9776 57.3224 38.334 57.3224 40.3392C57.3224 41.8725 56.6737 43.052 55.3763 43.8776C53.9609 42.4622 52.2507 41.7545 50.2455 41.7545V44.5853C51.543 44.5853 52.6045 45.0571 53.4301 46.0007C54.2558 46.9443 54.6096 48.0058 54.4917 49.1853C54.3737 50.2469 53.8724 51.161 52.9878 51.9276C52.1032 52.6943 51.0712 53.0776 49.8917 53.0776C48.8301 53.0776 47.916 53.461 47.1494 54.2276C46.3827 54.9943 45.9994 55.9084 45.9994 56.9699V64.4007H43.1686V56.9699C43.1686 56.4981 43.0506 56.0263 42.8148 55.5545C42.5789 55.0828 42.284 54.6699 41.9301 54.3161C41.5763 53.9622 41.1635 53.6674 40.6917 53.4315C40.2199 53.1956 39.7481 53.0776 39.2763 53.0776C38.0968 53.0776 37.0942 52.7533 36.2686 52.1045C35.443 51.4558 34.9122 50.6007 34.6763 49.5392ZM57.3224 67.2315C58.266 67.2315 58.7378 67.7033 58.7378 68.6469C58.7378 69.5905 58.266 70.0622 57.3224 70.0622H31.8455C30.9019 70.0622 30.4301 69.5905 30.4301 68.6469C30.4301 67.7033 30.9019 67.2315 31.8455 67.2315H57.3224ZM57.3224 72.893C58.266 72.893 58.7378 73.3648 58.7378 74.3084C58.7378 75.252 58.266 75.7238 57.3224 75.7238H31.8455C30.9019 75.7238 30.4301 75.252 30.4301 74.3084C30.4301 73.3648 30.9019 72.893 31.8455 72.893H57.3224ZM50.5994 84.57C50.5994 84.57 50.1866 84.9828 49.3609 85.8084C48.5353 86.6341 46.943 87.0469 44.584 87.0469C42.225 87.0469 40.2199 86.2212 38.5686 84.57C36.9173 82.9187 36.0917 80.9135 36.0917 78.5546H53.0763C53.0763 80.9135 52.2507 82.9187 50.5994 84.57ZM73.5109 74.9276C73.5109 74.9276 73.85 74.5885 74.5282 73.9103C75.2064 73.2321 76.5481 72.893 78.5532 72.893C80.5584 72.893 82.2391 73.5712 83.5955 74.9276C84.952 76.284 85.6302 77.9648 85.6302 79.9699C85.6302 81.9751 84.952 83.6558 83.5955 85.0123C82.2391 86.3687 80.5584 87.0469 78.5532 87.0469C76.5481 87.0469 74.8673 86.3687 73.5109 85.0123C72.1545 83.6558 71.4763 81.9751 71.4763 79.9699C71.4763 77.9648 72.1545 76.284 73.5109 74.9276ZM75.5455 82.9776C75.5455 82.9776 75.7519 83.1841 76.1648 83.5969C76.5776 84.0097 77.3737 84.2161 78.5532 84.2161C79.7327 84.2161 80.7353 83.8033 81.5609 82.9776C82.3866 82.152 82.7994 81.1494 82.7994 79.9699C82.7994 78.7905 82.3866 77.7879 81.5609 76.9623C80.7353 76.1366 79.7327 75.7238 78.5532 75.7238C77.3737 75.7238 76.3712 76.1366 75.5455 76.9623C74.7199 77.7879 74.3071 78.7905 74.3071 79.9699C74.3071 81.1494 74.7199 82.152 75.5455 82.9776ZM78.5532 81.3853C78.5532 81.3853 78.3173 81.3853 77.8455 81.3853C77.3737 81.3853 77.1378 80.9135 77.1378 79.9699C77.1378 79.0264 77.6096 78.5546 78.5532 78.5546C79.4968 78.5546 79.9686 79.0264 79.9686 79.9699C79.9686 80.9135 79.4968 81.3853 78.5532 81.3853ZM10.6147 72.893C10.6147 72.893 10.3788 72.893 9.90704 72.893C9.43524 72.893 9.19934 72.4212 9.19934 71.4776C9.19934 70.534 9.67114 70.0622 10.6147 70.0622C11.5583 70.0622 12.0301 70.534 12.0301 71.4776C12.0301 72.4212 11.5583 72.893 10.6147 72.893ZM5.57242 66.4353C5.57242 66.4353 5.91152 66.0962 6.58973 65.418C7.26793 64.7398 8.6096 64.4007 10.6147 64.4007C12.6199 64.4007 14.3006 65.0789 15.657 66.4353C17.0135 67.7917 17.6917 69.4725 17.6917 71.4776C17.6917 73.4828 17.0135 75.1635 15.657 76.5199C14.3006 77.8764 12.6199 78.5546 10.6147 78.5546C8.6096 78.5546 6.92883 77.8764 5.57242 76.5199C4.21601 75.1635 3.5378 73.4828 3.5378 71.4776C3.5378 69.4725 4.21601 67.7917 5.57242 66.4353ZM7.60704 74.4853C7.60704 74.4853 7.81345 74.6917 8.22627 75.1046C8.63909 75.5174 9.43524 75.7238 10.6147 75.7238C11.7942 75.7238 12.7968 75.311 13.6224 74.4853C14.4481 73.6597 14.8609 72.6571 14.8609 71.4776C14.8609 70.2981 14.4481 69.2956 13.6224 68.4699C12.7968 67.6443 11.7942 67.2315 10.6147 67.2315C9.43524 67.2315 8.43268 67.6443 7.60704 68.4699C6.78139 69.2956 6.36857 70.2981 6.36857 71.4776C6.36857 72.6571 6.78139 73.6597 7.60704 74.4853ZM43.1686 10.4391C41.2814 9.73145 40.3378 8.37503 40.3378 6.3699C40.3378 5.19041 40.7506 4.18785 41.5763 3.36221C42.4019 2.53657 43.4045 2.12375 44.584 2.12375C45.7635 2.12375 46.766 2.53657 47.5917 3.36221C48.4173 4.18785 48.8301 5.19041 48.8301 6.3699C48.8301 8.37503 47.8865 9.73145 45.9994 10.4391V16.2776C45.1737 16.2776 44.7019 16.2776 44.584 16.2776C44.466 16.2776 43.9942 16.2776 43.1686 16.2776V10.4391ZM84.2148 36.093C85.3943 36.093 86.3968 36.5058 87.2225 37.3315C88.0481 38.1571 88.4609 39.1597 88.4609 40.3392C88.4609 41.5186 88.0481 42.5212 87.2225 43.3468C86.3968 44.1725 85.3943 44.5853 84.2148 44.5853C82.2096 44.5853 80.8532 43.6417 80.1455 41.7545H68.6455C68.6455 41.2827 68.6455 40.8109 68.6455 40.3392C68.6455 40.2212 68.6455 39.7494 68.6455 38.9238H80.1455C80.8532 37.0366 82.2096 36.093 84.2148 36.093ZM9.02242 41.7545C8.31473 43.6417 6.95832 44.5853 4.95319 44.5853C3.7737 44.5853 2.77114 44.1725 1.94549 43.3468C1.11985 42.5212 0.707031 41.5186 0.707031 40.3392C0.707031 39.1597 1.11985 38.1571 1.94549 37.3315C2.77114 36.5058 3.7737 36.093 4.95319 36.093C6.95832 36.093 8.31473 37.0366 9.02242 38.9238H20.5224C20.5224 39.7494 20.5224 40.2212 20.5224 40.3392C20.5224 40.8109 20.5224 41.2827 20.5224 41.7545H9.02242ZM5.57242 17.0738C5.57242 17.0738 5.23332 16.7346 4.55511 16.0564C3.8769 15.3782 3.5378 14.0366 3.5378 12.0314C3.5378 10.0263 4.21601 8.34554 5.57242 6.98914C6.92883 5.63272 8.6096 4.95451 10.6147 4.95451C12.6199 4.95451 14.3006 5.63272 15.657 6.98914C17.0135 8.34554 17.6917 10.0263 17.6917 12.0314C17.6917 14.0366 17.0135 15.7173 15.657 17.0738C14.3006 18.4302 12.6199 19.1084 10.6147 19.1084C8.6096 19.1084 6.92883 18.4302 5.57242 17.0738ZM76.3417 21.3199C76.3417 21.3199 76.0026 20.9808 75.3244 20.3026C74.6462 19.6244 74.3071 18.2827 74.3071 16.2776C74.3071 14.2725 74.9853 12.5917 76.3417 11.2353C77.6981 9.87888 79.3789 9.20068 81.384 9.20068C83.3891 9.20068 85.0699 9.87888 86.4263 11.2353C87.7827 12.5917 88.4609 14.2725 88.4609 16.2776C88.4609 18.2827 87.7827 19.9635 86.4263 21.3199C85.0699 22.6763 83.3891 23.3545 81.384 23.3545C79.3789 23.3545 77.6981 22.6763 76.3417 21.3199ZM9.19934 21.7622C9.67114 21.8802 10.1429 21.9391 10.6147 21.9391C11.0865 21.9391 11.5583 21.8802 12.0301 21.7622V23.3545C12.0301 24.2981 12.5019 24.7699 13.4455 24.7699H26.184C25.4763 25.5956 24.8276 26.5391 24.2378 27.6007H13.4455C12.266 27.6007 11.2634 27.1879 10.4378 26.3622C9.61216 25.5366 9.19934 24.534 9.19934 23.3545V21.7622ZM70.2378 27.6007H64.9301C64.3404 26.5391 63.6917 25.5956 62.984 24.7699H70.2378C70.7096 24.7699 71.0635 24.652 71.2994 24.4161L73.4225 22.1161C74.0122 22.9417 74.7199 23.6494 75.5455 24.2391L73.2455 26.3622C72.4199 27.1879 71.4173 27.6007 70.2378 27.6007ZM77.1378 55.9084C77.1378 54.9648 76.6661 54.493 75.7225 54.493H64.3994C64.9891 53.5494 65.5199 52.6058 65.9917 51.6622H75.7225C76.9019 51.6622 77.9045 52.0751 78.7302 52.9007C79.5558 53.7263 79.9686 54.7289 79.9686 55.9084V70.2392C79.4968 70.1212 79.025 70.0622 78.5532 70.0622C78.0814 70.0622 77.6096 70.1212 77.1378 70.2392V55.9084ZM13.4455 53.0776H23.884C24.4737 54.0212 25.1224 54.9648 25.8301 55.9084H13.4455C12.5019 55.9084 12.0301 56.3802 12.0301 57.3238V61.7469C11.5583 61.6289 11.0865 61.5699 10.6147 61.5699C10.1429 61.5699 9.67114 61.6289 9.19934 61.7469V57.3238C9.19934 56.1443 9.61216 55.1417 10.4378 54.3161C11.2634 53.4904 12.266 53.0776 13.4455 53.0776Z" fill="#444444"/>
</svg>
